<svg width="56" height="56" viewBox="0 0 56 56" fill="none" xmlns="http://www.w3.org/2000/svg">
<path d="M55.7826 33.9464C55.6548 33.6461 55.4909 33.3561 55.3085 33.0859C54.3777 31.7057 53.1099 30.6716 51.8142 29.6698C51.6142 29.5149 51.4112 29.3694 51.2576 29.1615C51.3988 28.9932 51.5709 28.9786 51.7328 28.9308C52.1595 28.804 52.5831 28.6616 53.0078 28.5286C55.1095 27.8707 55.8908 26.237 55.9259 24.2093C55.9475 22.9113 55.3683 22.1391 54.1365 21.7618C53.5273 21.5747 52.9006 21.4812 52.2636 21.449C51.5885 21.4136 50.9143 21.37 50.1423 21.3253C50.5721 20.946 50.9422 20.6477 51.2813 20.3162C52.4718 19.1511 53.4191 17.8364 53.3346 16.0696C53.2469 14.2239 52.3636 12.9538 50.2887 13.0079C49.2651 13.0349 48.2931 13.303 47.3005 13.4787C47.284 13.4621 47.2686 13.4454 47.2521 13.4298C47.3026 13.3612 47.349 13.2906 47.4025 13.2251C48.5333 11.8709 49.2528 10.3712 49.1219 8.53894C49.0054 6.90622 47.8447 5.74118 46.3873 5.85966C45.9038 5.89915 45.4513 6.06856 45.0184 6.28473C44.5102 6.53832 44.0072 6.80126 43.5022 7.06004C43.6722 6.59652 43.7671 6.15794 43.8062 5.71104C43.9268 4.35269 43.5197 3.17622 42.3828 2.40922C41.3386 1.70563 40.2171 1.88438 39.1616 2.47574C38.1752 3.02864 37.3836 3.82473 36.6095 4.6385C36.3817 4.87857 36.1869 5.16542 35.7942 5.3421C35.9828 4.58757 36.0838 3.89333 36.0498 3.18142C35.9787 1.6838 34.7417 0.320255 33.2719 0.146693C32.7421 0.0843361 32.2566 0.190344 31.8051 0.499012C31.1114 0.973967 30.6878 1.6599 30.3023 2.37805C29.789 3.33315 29.4189 4.35477 28.9458 5.46057C28.8345 4.68215 28.7871 4.01285 28.5943 3.37057C28.2325 2.16395 27.7192 1.03113 26.5493 0.440812C24.8805 -0.40205 23.0529 -0.15366 22.6252 2.22007C22.4386 3.25417 22.4974 4.28826 22.5479 5.32443C22.5283 5.34209 22.5097 5.3608 22.4922 5.37951C22.2521 5.32027 22.1593 5.09786 22.0139 4.93677C21.3666 4.21862 20.7245 3.48904 19.8339 3.06605C18.0218 2.20552 16.6519 2.72205 16.2469 4.80582C16.0376 5.88356 16.0263 6.9717 16.0314 8.06295C16.0314 8.21988 16.118 8.40695 15.9438 8.53998C15.5243 8.15025 15.1264 7.74389 14.6925 7.3843C13.7947 6.64017 12.8258 6.03426 11.6291 5.90955C10.3767 5.77964 9.26244 6.76904 9.21193 8.03177C9.16864 9.1012 9.72009 9.90769 10.3004 10.7079C10.6024 11.1237 10.9281 11.5207 11.2436 11.926C10.6086 11.714 10.0159 11.4957 9.38201 11.4105C7.7565 11.1933 6.37838 11.661 5.37545 12.9913C4.46941 14.1937 4.67247 15.4907 5.21877 16.7774C5.61458 17.7096 6.26293 18.4725 6.86592 19.2654L6.85252 19.2779C6.72574 19.3257 6.62163 19.253 6.50825 19.2176C5.56614 18.9225 4.6065 18.7687 3.61594 18.8591C2.50994 18.9599 1.6709 19.6022 1.42352 20.602C1.18232 21.5779 1.18439 22.5641 1.53072 23.5182C2.11516 25.1281 3.31187 26.2401 4.5962 27.2763C4.85388 27.4841 5.1126 27.6899 5.394 27.9154C5.17033 28.0474 4.99716 27.9903 4.83121 28.0027C3.74891 28.0869 2.67795 28.222 1.68224 28.698C0.603038 29.2145 0.0309669 30.0855 0.0010749 31.2838C-0.0267556 32.4353 0.486562 33.3062 1.45651 33.9121C2.40893 34.5076 3.46545 34.7779 4.5529 34.9743C4.92088 35.0408 5.31669 35.0075 5.69911 35.2123C4.62506 35.9845 3.57987 36.7151 2.78721 37.7367C1.58741 39.2842 1.96673 40.9699 3.72727 41.7827C5.17342 42.4499 6.72368 42.4478 8.27497 42.3906C8.57286 42.3792 8.87178 42.3886 9.24388 42.3886C9.09236 42.5496 8.98826 42.6567 8.8893 42.7669C8.01316 43.7386 7.32461 44.8226 6.93292 46.0863C6.38868 47.8438 7.17412 48.987 9.00269 49.0868C9.07175 49.0909 9.13978 49.092 9.20884 49.092C10.3891 49.092 11.5229 48.828 12.634 48.4549C13.1968 48.2668 13.7493 48.0485 14.3348 47.8324C14.3142 48.0703 14.1781 48.1867 14.0833 48.3177C13.4927 49.1398 13.0536 50.0315 12.8969 51.0406C12.7619 51.9064 12.9 52.7076 13.6153 53.298C14.3966 53.9434 15.2532 54.0379 16.1665 53.5962C16.7602 53.3094 17.2673 52.901 17.7652 52.4707C18.0806 52.1984 18.3032 51.8211 18.7052 51.6019C18.7361 51.8606 18.6207 52.0415 18.5671 52.2369C18.2857 53.2637 18.4991 54.2146 19.2237 54.6709C20.5369 55.4971 21.9603 55.7112 23.4013 55.07C24.93 54.3892 25.7257 53.0288 26.3483 51.5509C26.5142 51.157 26.6513 50.7507 26.8018 50.3505C26.8925 51.3763 26.9245 52.3823 27.1822 53.3572C27.4378 54.3258 27.7934 55.2497 28.7726 55.7226C30.0868 56.3576 31.8536 55.8629 32.6679 54.6407C33.1657 53.8924 33.4131 53.0475 33.5595 52.1703C33.6347 51.7203 33.6842 51.2651 33.746 50.812C34.0594 51.3659 34.2769 51.9292 34.6057 52.4333C35.1592 53.2824 35.7694 54.0421 36.8558 54.2437C38.1072 54.4765 39.3132 53.828 39.7275 52.6266C40.0502 51.6923 40.0605 50.7237 39.9862 49.7509C39.9502 49.2707 39.8935 48.7927 39.8471 48.3135L39.978 48.2553C40.0842 48.3884 40.18 48.5308 40.2975 48.6524C41.2695 49.6553 42.222 50.6852 43.5156 51.2869C44.6814 51.8284 45.6647 51.4574 46.1605 50.2622C46.679 49.0151 46.5481 47.7201 46.3986 46.4231C46.3285 45.8109 46.1347 45.2092 46.1904 44.5752C46.5996 45.1801 47.0923 45.6758 47.6231 46.1404C48.357 46.7827 49.6486 46.9645 50.5154 46.5322C51.9544 45.8141 52.5378 44.4214 52.1781 42.6214C51.7936 40.6976 50.8432 39.041 49.8042 37.4239C49.7362 37.3179 49.6156 37.2275 49.6764 37.0508C50.132 37.1921 50.5639 37.3532 51.0092 37.4592C52.6099 37.8375 54.0736 37.6172 55.2909 36.4023C56.0248 35.6696 56.1877 34.8932 55.7857 33.9464H55.7826Z" fill="#1A1616"/>
</svg>
